<svg xmlns="http://www.w3.org/2000/svg" xmlns:xlink="http://www.w3.org/1999/xlink" width="1920" zoomAndPan="magnify" viewBox="0 0 1440 809.999993" height="1080" preserveAspectRatio="xMidYMid meet" version="1.0"><defs><g/><clipPath id="797f400ce5"><path d="M 81 338 L 655.15625 338 L 655.15625 619.074219 L 81 619.074219 Z M 81 338 " clip-rule="nonzero"/></clipPath></defs><rect x="-144" width="1728" fill="#ffffff" y="-80.999999" height="971.999992" fill-opacity="1"/><rect x="-144" width="1728" fill="#ffffff" y="-80.999999" height="971.999992" fill-opacity="1"/><path fill="#00a1df" d="M 314.585938 81 L 387.996094 139.617188 L 387.996094 108.050781 L 465.277344 108.050781 L 465.277344 201.324219 L 621.351562 325.949219 C 604.59375 324.941406 587.660156 324.433594 570.582031 324.433594 C 560.105469 324.433594 549.6875 324.628906 539.328125 325.007812 L 314.585938 144.605469 L 141.949219 282.453125 L 165.300781 282.453125 L 165.300781 375.816406 C 242.554688 333.054688 393.898438 310.0625 499.164062 327.4375 C 351.757812 339.90625 218.628906 390.511719 115.597656 466.609375 L 115.597656 332.160156 L 0.0390625 332.160156 Z M 314.585938 81 " fill-opacity="1" fill-rule="evenodd"/><g clip-path="url(#797f400ce5)"><path fill="#10588c" d="M 397.214844 378.882812 C 486.308594 349.066406 575.007812 336.273438 655.121094 338.695312 C 605.246094 344.886719 553.632812 356.472656 501.898438 373.785156 C 344.753906 426.382812 223.015625 519.632812 165.546875 619.089844 L 81.324219 592.738281 C 144.609375 505.371094 256.777344 425.886719 397.214844 378.882812 Z M 397.214844 378.882812 " fill-opacity="1" fill-rule="evenodd"/></g><g fill="#000000" fill-opacity="1"><g transform="translate(376.556882, 581.424243)"><g><path d="M 32.117188 -109.546875 C 34.171875 -106.300781 36.875 -103.164062 40.226562 -100.246094 C 43.582031 -97.324219 47.367188 -94.515625 51.691406 -91.8125 C 55.910156 -89.109375 60.34375 -86.511719 64.777344 -84.023438 C 69.210938 -81.539062 73.644531 -79.160156 77.96875 -76.886719 C 82.292969 -74.617188 86.1875 -72.347656 89.539062 -70.292969 C 96.351562 -65.964844 100.894531 -62.179688 101.003906 -58.394531 L 101.003906 -57.640625 C 99.707031 -46.285156 90.296875 -37.09375 79.050781 -31.144531 C 75.265625 -29.089844 71.371094 -27.359375 67.480469 -25.953125 C 63.476562 -24.546875 59.691406 -23.464844 56.015625 -22.710938 C 52.230469 -21.953125 48.878906 -21.628906 45.960938 -21.628906 C 41.09375 -21.628906 36.769531 -21.085938 33.089844 -20.007812 C 29.414062 -18.816406 26.0625 -20.222656 23.035156 -24.117188 C 20.007812 -28.007812 17.195312 -30.605469 14.492188 -31.902344 C 11.789062 -33.089844 8.867188 -33.738281 5.730469 -33.738281 C 2.488281 -33.738281 -0.214844 -33.414062 -2.269531 -32.765625 C -4.324219 -32.117188 -5.949219 -31.359375 -7.136719 -30.386719 C -8.328125 -29.414062 -9.082031 -27.144531 -9.515625 -23.574219 C -9.625 -22.601562 -9.734375 -21.953125 -9.839844 -21.519531 C -10.164062 -22.167969 -10.273438 -22.816406 -10.382812 -23.359375 C -10.273438 -20.980469 -10.164062 -20.332031 -9.839844 -21.519531 C -9.515625 -20.761719 -8.976562 -19.898438 -8.433594 -19.03125 C -7.136719 -17.195312 -5.191406 -15.140625 -2.703125 -13.085938 C 5.191406 -6.703125 18.277344 -0.324219 37.199219 2.917969 C 43.363281 3.894531 50.175781 4.433594 57.640625 4.433594 C 64.019531 4.433594 70.507812 3.894531 77.210938 2.703125 C 90.511719 0.214844 103.382812 -4.648438 114.738281 -12.003906 C 120.359375 -15.679688 125.335938 -20.007812 129.660156 -24.980469 C 133.984375 -29.847656 137.445312 -35.46875 140.148438 -41.742188 C 142.851562 -47.90625 144.367188 -54.828125 144.691406 -62.398438 C 144.800781 -62.722656 144.800781 -63.046875 144.800781 -63.371094 L 144.800781 -64.453125 C 144.691406 -68.453125 143.828125 -72.238281 142.097656 -75.804688 C 140.257812 -79.375 137.878906 -82.726562 134.957031 -85.863281 C 131.929688 -89 128.363281 -92.027344 124.359375 -94.945312 C 120.359375 -97.757812 116.035156 -100.460938 111.492188 -103.058594 C 102.300781 -108.25 92.136719 -113.113281 82.292969 -117.871094 L 72.128906 -122.957031 C 77.320312 -126.847656 86.835938 -128.253906 98.082031 -129.121094 C 109.222656 -129.875 122.089844 -129.984375 133.769531 -130.847656 L 133.769531 -132.6875 C 133.769531 -136.039062 133.335938 -138.960938 132.363281 -141.664062 C 131.714844 -145.230469 130.523438 -148.152344 128.6875 -150.421875 C 126.847656 -152.695312 124.46875 -154.53125 121.765625 -155.9375 C 119.0625 -157.234375 115.925781 -158.210938 112.464844 -158.75 C 108.898438 -159.289062 105.21875 -159.507812 101.328125 -159.507812 C 97.976562 -159.507812 93.757812 -159.074219 88.890625 -158.316406 C 84.023438 -157.453125 78.835938 -156.261719 73.535156 -154.75 C 68.128906 -153.125 62.828125 -151.289062 57.53125 -149.015625 C 52.230469 -146.746094 47.472656 -144.042969 43.257812 -141.121094 C 39.039062 -138.203125 35.578125 -134.957031 32.984375 -131.390625 C 30.277344 -127.820312 28.980469 -123.929688 28.980469 -119.820312 C 28.980469 -116.25 30.0625 -112.789062 32.117188 -109.546875 Z M 32.117188 -109.546875 "/></g></g></g><g fill="#000000" fill-opacity="1"><g transform="translate(530.868259, 581.424243)"><g><path d="M 68.019531 -154.316406 C 64.019531 -155.9375 60.125 -157.992188 56.234375 -160.265625 C 54.609375 -160.914062 52.988281 -161.5625 51.367188 -162.316406 C 49.746094 -162.96875 48.121094 -163.722656 46.714844 -164.480469 C 44.769531 -163.941406 42.5 -161.5625 39.902344 -157.558594 C 37.199219 -153.558594 34.496094 -148.367188 31.578125 -141.988281 C 28.65625 -135.609375 25.628906 -128.46875 22.601562 -120.359375 C 19.464844 -112.25 16.546875 -103.921875 13.625 -95.164062 C 4.757812 -68.992188 -2.8125 -41.527344 -6.164062 -24.007812 C -7.246094 -18.058594 -7.785156 -13.410156 -7.785156 -10.273438 C -7.785156 -8.433594 -7.570312 -6.8125 -7.246094 -5.40625 C -6.378906 -2.703125 -4.542969 -0.757812 -1.40625 0.214844 C 0.214844 0.648438 2.164062 0.863281 4.648438 0.863281 C 7.136719 0.863281 9.515625 0.324219 11.789062 -0.648438 C 16.222656 -2.488281 20.007812 -5.730469 22.925781 -9.300781 C 24.332031 -11.136719 25.414062 -12.867188 26.277344 -14.492188 C 27.898438 -17.84375 29.847656 -22.0625 32.226562 -27.359375 C 34.496094 -32.660156 37.09375 -38.496094 39.796875 -44.984375 C 42.5 -51.367188 45.417969 -58.179688 48.445312 -65.425781 C 54.394531 -79.808594 60.234375 -94.515625 65.425781 -108.03125 C 70.617188 -121.441406 74.617188 -132.578125 76.886719 -140.257812 C 78.078125 -144.042969 78.617188 -146.53125 78.617188 -147.9375 C 78.617188 -148.261719 78.507812 -148.585938 78.402344 -148.910156 C 75.375 -150.855469 71.914062 -152.695312 68.019531 -154.316406 Z M 68.019531 -154.316406 "/></g></g></g><g fill="#000000" fill-opacity="1"><g transform="translate(593.155119, 581.424243)"><g><path d="M 30.171875 -157.453125 C 28.332031 -155.289062 27.683594 -152.261719 26.820312 -148.367188 C 26.710938 -148.261719 26.710938 -148.261719 26.710938 -148.152344 C 25.089844 -141.878906 23.25 -135.390625 21.085938 -128.792969 C 18.925781 -122.089844 16.652344 -115.386719 14.382812 -108.574219 C 9.625 -94.839844 4.757812 -81.105469 1.191406 -67.804688 C -0.648438 -61.097656 -2.054688 -54.609375 -3.246094 -48.230469 C -4.324219 -41.851562 -4.867188 -35.6875 -4.867188 -29.847656 L -4.867188 -28.007812 C -4.867188 -27.46875 -4.867188 -26.820312 -4.757812 -26.277344 C -4.648438 -24.65625 -3.785156 -22.710938 -2.054688 -20.546875 C -0.214844 -18.382812 1.945312 -16.328125 4.648438 -14.382812 C 7.246094 -12.328125 10.058594 -10.707031 13.191406 -9.300781 C 16.222656 -7.894531 19.140625 -7.246094 21.84375 -7.246094 C 23.25 -7.246094 24.332031 -7.460938 25.089844 -7.785156 C 25.84375 -8.109375 26.386719 -8.542969 26.820312 -9.191406 C 27.144531 -9.839844 27.46875 -10.707031 27.792969 -11.679688 C 28.007812 -12.652344 28.332031 -13.734375 28.765625 -14.921875 C 29.738281 -18.707031 31.035156 -22.925781 32.441406 -27.792969 C 33.847656 -32.550781 35.363281 -37.632812 37.09375 -43.148438 C 40.445312 -54.070312 44.121094 -66.183594 47.691406 -77.96875 C 49.527344 -83.808594 51.257812 -89.539062 52.878906 -95.269531 C 54.503906 -100.894531 56.125 -106.195312 57.53125 -111.167969 C 59.476562 -109.113281 61.746094 -106.84375 64.453125 -104.246094 C 72.019531 -96.675781 81.753906 -87.160156 90.40625 -81.105469 C 93.21875 -79.050781 95.8125 -77.320312 98.300781 -76.023438 C 100.679688 -74.726562 102.734375 -74.074219 104.464844 -74.074219 L 146.207031 -103.597656 L 144.90625 -100.246094 C 144.042969 -97.976562 142.851562 -95.054688 141.449219 -91.269531 C 139.933594 -87.484375 138.203125 -83.050781 136.363281 -78.183594 C 134.527344 -73.210938 132.578125 -68.019531 130.632812 -62.613281 C 128.578125 -57.097656 126.632812 -51.582031 124.792969 -46.066406 C 122.847656 -40.550781 121.117188 -35.253906 119.710938 -30.277344 C 118.195312 -25.304688 117.007812 -20.761719 116.140625 -16.761719 C 115.167969 -12.761719 114.738281 -9.515625 114.738281 -7.136719 C 114.738281 -4.433594 115.601562 -2.164062 117.441406 -0.109375 C 119.277344 1.945312 121.550781 3.785156 124.253906 5.191406 C 126.957031 6.597656 129.984375 7.679688 133.230469 8.433594 C 136.472656 9.191406 139.5 9.515625 142.421875 9.515625 C 144.257812 9.515625 146.097656 9.191406 147.503906 8.867188 C 148.476562 6.488281 149.882812 3.027344 151.613281 -1.40625 C 153.234375 -5.839844 155.179688 -11.03125 157.453125 -16.871094 C 161.777344 -28.550781 167.078125 -42.714844 172.699219 -57.421875 C 175.402344 -64.667969 178.214844 -72.128906 181.132812 -79.589844 C 186.757812 -94.40625 192.273438 -108.464844 197.355469 -120.578125 C 199.84375 -126.523438 202.222656 -131.824219 204.277344 -136.363281 C 204.386719 -136.472656 204.386719 -136.796875 204.492188 -137.121094 C 204.492188 -137.445312 204.492188 -137.664062 204.492188 -137.769531 L 206.65625 -142.421875 C 206.007812 -144.691406 204.925781 -146.746094 203.410156 -148.691406 C 201.789062 -150.640625 200.058594 -152.476562 198.003906 -154.316406 C 194.003906 -157.777344 189.246094 -160.914062 185.242188 -163.832031 C 182.324219 -163.722656 178.972656 -162.75 175.1875 -161.128906 C 171.402344 -159.398438 167.292969 -157.234375 162.96875 -154.640625 C 158.640625 -151.9375 154.207031 -149.015625 149.558594 -145.664062 C 144.90625 -142.3125 140.367188 -138.851562 135.933594 -135.285156 C 131.390625 -131.714844 127.066406 -128.253906 122.957031 -124.792969 C 118.738281 -121.226562 114.953125 -118.089844 111.601562 -115.167969 C 108.25 -112.25 105.328125 -109.652344 102.949219 -107.597656 C 100.460938 -105.542969 98.730469 -104.140625 97.757812 -103.382812 C 95.054688 -103.382812 85 -114.953125 73.859375 -128.253906 C 69.964844 -132.6875 66.074219 -137.121094 62.074219 -141.449219 C 54.179688 -149.992188 46.285156 -157.667969 40.226562 -161.238281 C 37.523438 -161.019531 35.363281 -160.589844 33.847656 -160.046875 C 32.226562 -159.398438 31.035156 -158.535156 30.171875 -157.453125 Z M 30.171875 -157.453125 "/></g></g></g><g fill="#000000" fill-opacity="1"><g transform="translate(782.719123, 581.424243)"><g><path d="M 48.230469 -183.40625 C 46.824219 -182.109375 45.636719 -180.484375 44.660156 -178.539062 C 43.582031 -176.484375 42.605469 -174.105469 41.632812 -171.402344 L 35.792969 -154.855469 C 33.308594 -147.609375 30.605469 -139.933594 27.792969 -131.929688 C 22.167969 -115.816406 16.546875 -99.054688 11.03125 -82.617188 C 8.328125 -74.292969 5.730469 -66.398438 3.460938 -58.71875 C 1.082031 -51.042969 -1.082031 -43.90625 -2.917969 -37.09375 C -4.757812 -30.277344 -6.164062 -24.117188 -7.246094 -18.601562 C -8.433594 -13.949219 -8.976562 -9.949219 -8.976562 -7.246094 C -8.976562 -3.027344 -4.757812 0.109375 0.863281 2.269531 C 6.378906 4.433594 13.191406 5.625 18.382812 5.625 C 25.738281 5.625 31.253906 1.082031 35.6875 -5.949219 C 40.011719 -12.976562 43.148438 -22.601562 46.175781 -32.660156 C 47.582031 -37.742188 48.988281 -42.824219 50.394531 -48.015625 C 51.800781 -53.097656 53.203125 -57.964844 54.71875 -62.613281 L 80.5625 -81.214844 C 87.917969 -69.640625 96.351562 -56.234375 105.328125 -43.796875 C 109.761719 -37.523438 114.195312 -31.578125 118.847656 -26.0625 C 123.386719 -20.546875 127.929688 -15.898438 132.472656 -12.113281 C 140.257812 -5.730469 149.339844 -1.191406 158.859375 1.945312 C 163.507812 3.460938 168.375 4.648438 173.347656 5.40625 C 178.214844 6.164062 183.1875 6.488281 188.054688 6.488281 C 188.8125 6.488281 189.679688 6.488281 190.652344 6.488281 C 191.625 6.378906 192.488281 6.378906 193.460938 6.273438 C 194.4375 6.164062 195.300781 5.949219 196.058594 5.730469 C 196.816406 5.515625 197.246094 5.300781 197.570312 4.972656 C 196.597656 3.675781 195.625 2.488281 194.652344 1.515625 C 192.8125 -0.648438 190.652344 -2.59375 188.378906 -4.433594 C 187.191406 -5.40625 185.785156 -6.378906 184.269531 -7.355469 C 169.238281 -17.195312 155.074219 -31.792969 142.636719 -47.691406 C 136.472656 -55.585938 130.742188 -63.585938 125.660156 -71.914062 C 120.578125 -80.132812 116.140625 -87.917969 112.574219 -95.269531 L 110.84375 -98.625 L 109.328125 -101.867188 C 119.925781 -110.84375 130.523438 -119.601562 141.015625 -127.929688 C 151.503906 -136.257812 162.101562 -144.476562 172.699219 -152.695312 C 173.566406 -153.34375 174.644531 -154.101562 175.945312 -155.074219 C 177.132812 -156.046875 178.429688 -157.019531 179.621094 -158.101562 C 180.808594 -159.074219 181.785156 -160.15625 182.648438 -161.238281 C 183.40625 -162.316406 183.839844 -163.292969 183.839844 -164.265625 C 183.839844 -165.886719 183.296875 -167.292969 182.214844 -168.589844 C 181.027344 -169.886719 179.730469 -170.96875 178.105469 -171.941406 C 174.753906 -173.671875 170.753906 -174.753906 167.832031 -174.753906 C 162.644531 -174.753906 156.695312 -173.671875 149.882812 -171.511719 C 143.070312 -169.238281 136.039062 -165.671875 128.6875 -160.589844 C 117.980469 -153.234375 106.949219 -144.367188 96.136719 -136.148438 L 91.164062 -132.039062 C 82.402344 -125.117188 74.292969 -118.738281 67.804688 -114.085938 C 68.34375 -115.816406 69.101562 -117.765625 69.859375 -119.925781 C 70.617188 -121.980469 71.371094 -124.253906 72.238281 -126.632812 C 72.347656 -126.632812 72.347656 -126.847656 72.453125 -127.390625 C 73.859375 -131.175781 75.265625 -135.066406 76.886719 -139.066406 C 78.402344 -143.070312 79.808594 -146.855469 80.996094 -150.640625 C 82.1875 -154.316406 83.269531 -157.667969 84.132812 -160.804688 C 84.890625 -163.941406 85.324219 -166.425781 85.324219 -168.375 C 85.324219 -169.996094 84.132812 -173.78125 80.132812 -175.835938 C 78.507812 -178 75.375 -180.808594 71.589844 -183.082031 C 69.640625 -184.164062 67.585938 -185.136719 65.316406 -185.894531 C 63.046875 -186.648438 60.882812 -186.972656 58.71875 -186.972656 C 56.449219 -186.972656 54.394531 -186.648438 52.773438 -186.109375 C 51.042969 -185.570312 49.527344 -184.59375 48.230469 -183.40625 Z M 48.230469 -183.40625 "/></g></g></g><g fill="#000000" fill-opacity="1"><g transform="translate(964.605444, 581.424243)"><g><path d="M 120.683594 -157.453125 C 111.492188 -157.453125 101.976562 -156.695312 92.242188 -155.289062 C 72.671875 -152.261719 53.960938 -145.988281 37.632812 -136.039062 C 29.414062 -130.957031 22.277344 -125.011719 16.113281 -117.980469 C 9.949219 -110.953125 5.082031 -102.839844 1.515625 -93.648438 C -2.054688 -84.457031 -3.894531 -73.96875 -3.894531 -62.398438 L -3.894531 -60.773438 C -3.894531 -60.019531 -3.246094 -58.613281 -1.839844 -56.558594 C -0.433594 -54.394531 1.40625 -51.800781 3.785156 -48.769531 C 6.054688 -45.742188 8.757812 -42.390625 11.894531 -38.824219 C 14.921875 -35.144531 18.167969 -31.46875 21.628906 -27.898438 C 25.089844 -24.222656 28.65625 -20.65625 32.332031 -17.195312 C 35.902344 -13.734375 39.472656 -10.707031 42.929688 -8.109375 C 46.285156 -5.40625 49.527344 -3.351562 52.664062 -1.730469 C 55.691406 -0.109375 58.289062 0.757812 60.558594 0.757812 C 69.964844 0.757812 79.375 -0.539062 88.675781 -3.027344 C 97.867188 -5.515625 106.734375 -8.867188 115.167969 -13.300781 C 123.496094 -17.734375 131.28125 -22.925781 138.527344 -29.089844 C 145.664062 -35.144531 151.828125 -41.851562 157.128906 -49.09375 C 162.316406 -56.339844 166.425781 -64.128906 169.457031 -72.347656 C 172.375 -80.457031 173.890625 -88.78125 173.890625 -97.324219 C 173.890625 -97.867188 173.890625 -98.515625 173.890625 -99.054688 C 173.78125 -99.597656 173.78125 -100.136719 173.671875 -100.679688 C 173.347656 -106.84375 170.210938 -115.386719 165.128906 -123.710938 C 154.75 -140.367188 137.230469 -157.453125 120.683594 -157.453125 Z M 119.0625 -54.070312 C 113.65625 -48.554688 107.925781 -43.582031 101.761719 -39.363281 C 89.539062 -30.710938 76.023438 -25.089844 63.371094 -25.089844 C 62.828125 -25.089844 60.019531 -28.007812 56.882812 -32.007812 C 53.53125 -36.011719 49.527344 -41.09375 46.5 -45.417969 C 44.878906 -47.582031 43.582031 -49.527344 42.605469 -51.148438 C 41.527344 -52.773438 40.984375 -53.855469 40.984375 -54.394531 L 40.984375 -55.585938 C 40.984375 -62.074219 42.175781 -68.238281 44.660156 -74.074219 C 47.039062 -79.808594 50.285156 -85.214844 54.394531 -90.1875 C 58.394531 -95.164062 63.152344 -99.707031 68.667969 -103.707031 C 74.183594 -107.707031 79.914062 -111.058594 86.078125 -113.871094 C 92.136719 -116.683594 98.40625 -118.953125 104.789062 -120.578125 C 111.167969 -122.199219 117.441406 -123.0625 123.386719 -123.171875 C 125.011719 -123.171875 127.066406 -122.523438 129.660156 -121.332031 C 132.148438 -120.144531 134.632812 -118.628906 137.121094 -116.898438 C 139.5 -115.0625 141.554688 -113.113281 143.394531 -111.058594 C 145.125 -108.898438 145.988281 -106.949219 146.097656 -105.113281 C 146.097656 -95.269531 141.230469 -83.160156 133.121094 -71.371094 C 129.121094 -65.425781 124.359375 -59.585938 119.0625 -54.070312 Z M 119.0625 -54.070312 "/></g></g></g><g fill="#000000" fill-opacity="1"><g transform="translate(1135.461739, 581.424243)"><g><path d="M 32.117188 -109.546875 C 34.171875 -106.300781 36.875 -103.164062 40.226562 -100.246094 C 43.582031 -97.324219 47.367188 -94.515625 51.691406 -91.8125 C 55.910156 -89.109375 60.34375 -86.511719 64.777344 -84.023438 C 69.210938 -81.539062 73.644531 -79.160156 77.96875 -76.886719 C 82.292969 -74.617188 86.1875 -72.347656 89.539062 -70.292969 C 96.351562 -65.964844 100.894531 -62.179688 101.003906 -58.394531 L 101.003906 -57.640625 C 99.707031 -46.285156 90.296875 -37.09375 79.050781 -31.144531 C 75.265625 -29.089844 71.371094 -27.359375 67.480469 -25.953125 C 63.476562 -24.546875 59.691406 -23.464844 56.015625 -22.710938 C 52.230469 -21.953125 48.878906 -21.628906 45.960938 -21.628906 C 41.09375 -21.628906 36.769531 -21.085938 33.089844 -20.007812 C 29.414062 -18.816406 26.0625 -20.222656 23.035156 -24.117188 C 20.007812 -28.007812 17.195312 -30.605469 14.492188 -31.902344 C 11.789062 -33.089844 8.867188 -33.738281 5.730469 -33.738281 C 2.488281 -33.738281 -0.214844 -33.414062 -2.269531 -32.765625 C -4.324219 -32.117188 -5.949219 -31.359375 -7.136719 -30.386719 C -8.328125 -29.414062 -9.082031 -27.144531 -9.515625 -23.574219 C -9.625 -22.601562 -9.734375 -21.953125 -9.839844 -21.519531 C -10.164062 -22.167969 -10.273438 -22.816406 -10.382812 -23.359375 C -10.273438 -20.980469 -10.164062 -20.332031 -9.839844 -21.519531 C -9.515625 -20.761719 -8.976562 -19.898438 -8.433594 -19.03125 C -7.136719 -17.195312 -5.191406 -15.140625 -2.703125 -13.085938 C 5.191406 -6.703125 18.277344 -0.324219 37.199219 2.917969 C 43.363281 3.894531 50.175781 4.433594 57.640625 4.433594 C 64.019531 4.433594 70.507812 3.894531 77.210938 2.703125 C 90.511719 0.214844 103.382812 -4.648438 114.738281 -12.003906 C 120.359375 -15.679688 125.335938 -20.007812 129.660156 -24.980469 C 133.984375 -29.847656 137.445312 -35.46875 140.148438 -41.742188 C 142.851562 -47.90625 144.367188 -54.828125 144.691406 -62.398438 C 144.800781 -62.722656 144.800781 -63.046875 144.800781 -63.371094 L 144.800781 -64.453125 C 144.691406 -68.453125 143.828125 -72.238281 142.097656 -75.804688 C 140.257812 -79.375 137.878906 -82.726562 134.957031 -85.863281 C 131.929688 -89 128.363281 -92.027344 124.359375 -94.945312 C 120.359375 -97.757812 116.035156 -100.460938 111.492188 -103.058594 C 102.300781 -108.25 92.136719 -113.113281 82.292969 -117.871094 L 72.128906 -122.957031 C 77.320312 -126.847656 86.835938 -128.253906 98.082031 -129.121094 C 109.222656 -129.875 122.089844 -129.984375 133.769531 -130.847656 L 133.769531 -132.6875 C 133.769531 -136.039062 133.335938 -138.960938 132.363281 -141.664062 C 131.714844 -145.230469 130.523438 -148.152344 128.6875 -150.421875 C 126.847656 -152.695312 124.46875 -154.53125 121.765625 -155.9375 C 119.0625 -157.234375 115.925781 -158.210938 112.464844 -158.75 C 108.898438 -159.289062 105.21875 -159.507812 101.328125 -159.507812 C 97.976562 -159.507812 93.757812 -159.074219 88.890625 -158.316406 C 84.023438 -157.453125 78.835938 -156.261719 73.535156 -154.75 C 68.128906 -153.125 62.828125 -151.289062 57.53125 -149.015625 C 52.230469 -146.746094 47.472656 -144.042969 43.257812 -141.121094 C 39.039062 -138.203125 35.578125 -134.957031 32.984375 -131.390625 C 30.277344 -127.820312 28.980469 -123.929688 28.980469 -119.820312 C 28.980469 -116.25 30.0625 -112.789062 32.117188 -109.546875 Z M 32.117188 -109.546875 "/></g></g></g><g fill="#000000" fill-opacity="1"><g transform="translate(1289.773142, 581.424243)"><g><path d="M 33.199219 3.460938 C 36.117188 1.40625 38.28125 -1.730469 39.472656 -6.054688 C 42.605469 -16.871094 46.066406 -28.007812 50.070312 -39.472656 C 54.070312 -50.824219 58.179688 -62.398438 62.398438 -74.074219 C 66.613281 -85.648438 70.722656 -97.324219 74.832031 -108.898438 C 78.941406 -120.46875 82.726562 -131.714844 86.078125 -142.851562 L 134.308594 -148.261719 C 137.769531 -148.585938 140.691406 -149.449219 142.746094 -150.640625 C 142.636719 -151.394531 142.421875 -152.046875 142.3125 -152.800781 C 142.203125 -153.449219 141.988281 -154.101562 141.878906 -154.855469 L 139.5 -165.023438 C 137.230469 -165.886719 133.878906 -166.535156 130.523438 -166.535156 C 118.523438 -166.320312 106.84375 -165.886719 95.378906 -165.128906 C 83.808594 -164.371094 72.453125 -163.398438 61.097656 -162.425781 C 49.746094 -161.453125 38.390625 -160.371094 27.144531 -159.289062 C 15.789062 -158.101562 4.433594 -157.128906 -7.027344 -156.15625 C -10.597656 -155.828125 -13.085938 -154.964844 -14.597656 -153.667969 C -16.113281 -152.261719 -16.871094 -150.746094 -16.871094 -149.015625 C -16.871094 -147.285156 -16.4375 -145.664062 -15.570312 -144.152344 C -14.597656 -142.636719 -13.191406 -141.339844 -11.136719 -140.257812 C -7.136719 -137.988281 -0.648438 -136.582031 8.542969 -136.582031 C 11.460938 -136.6875 14.597656 -136.796875 17.84375 -137.121094 C 20.980469 -137.445312 24.007812 -137.769531 26.925781 -138.09375 C 32.660156 -138.636719 37.417969 -139.285156 39.578125 -139.609375 C 36.660156 -128.039062 32.332031 -114.738281 27.683594 -100.894531 C 22.925781 -87.054688 17.84375 -72.5625 13.625 -58.71875 C 11.460938 -51.800781 9.625 -45.09375 8.109375 -38.605469 C 6.488281 -32.117188 5.40625 -26.0625 4.867188 -20.4375 C 4.757812 -19.679688 4.648438 -19.03125 4.648438 -18.382812 L 4.648438 -16.4375 C 4.648438 -10.273438 6.054688 -4.648438 9.191406 -0.433594 C 12.21875 3.785156 16.976562 6.378906 23.574219 6.378906 C 26.925781 6.378906 30.171875 5.40625 33.199219 3.460938 Z M 33.199219 3.460938 "/></g></g></g></svg>