<svg xmlns="http://www.w3.org/2000/svg" xmlns:xlink="http://www.w3.org/1999/xlink" width="1920" zoomAndPan="magnify" viewBox="0 0 1440 809.999993" height="1080" preserveAspectRatio="xMidYMid meet" version="1.0"><defs><clipPath id="d280098dac"><path d="M 392.40625 135.960938 L 1015 135.960938 L 1015 522 L 392.40625 522 Z M 392.40625 135.960938 " clip-rule="nonzero"/></clipPath><clipPath id="5cb1ea4660"><path d="M 473 393 L 1047.90625 393 L 1047.90625 673.710938 L 473 673.710938 Z M 473 393 " clip-rule="nonzero"/></clipPath></defs><g clip-path="url(#d280098dac)"><path fill="#00a1df" d="M 707.15625 135.960938 L 780.601562 194.546875 L 780.601562 162.996094 L 857.921875 162.996094 L 857.921875 256.214844 L 1014.074219 380.765625 C 997.308594 379.757812 980.367188 379.25 963.28125 379.25 C 952.796875 379.25 942.378906 379.445312 932.011719 379.824219 L 707.15625 199.53125 L 534.433594 337.292969 L 557.796875 337.292969 L 557.796875 430.601562 C 635.089844 387.867188 786.507812 364.886719 891.824219 382.253906 C 744.347656 394.710938 611.152344 445.289062 508.066406 521.339844 L 508.066406 386.96875 L 392.453125 386.96875 Z M 707.15625 135.960938 " fill-opacity="1" fill-rule="evenodd"/></g><g clip-path="url(#5cb1ea4660)"><path fill="#10588c" d="M 789.824219 433.664062 C 878.964844 403.867188 967.707031 391.082031 1047.863281 393.503906 C 997.960938 399.691406 946.324219 411.269531 894.5625 428.570312 C 737.339844 481.136719 615.542969 574.328125 558.042969 673.730469 L 473.78125 647.390625 C 537.09375 560.078125 649.320312 480.640625 789.824219 433.664062 Z M 789.824219 433.664062 " fill-opacity="1" fill-rule="evenodd"/></g></svg>