<svg xmlns="http://www.w3.org/2000/svg" xmlns:xlink="http://www.w3.org/1999/xlink" width="500" zoomAndPan="magnify" viewBox="0 0 375 374.999991" height="500" preserveAspectRatio="xMidYMid meet" version="1.0"><defs><clipPath id="e1555fa032"><path d="M 0 37.5 L 356 37.5 L 356 259 L 0 259 Z M 0 37.5 " clip-rule="nonzero"/></clipPath><clipPath id="942e58edf7"><path d="M 46 184 L 375 184 L 375 345.75 L 46 345.75 Z M 46 184 " clip-rule="nonzero"/></clipPath></defs><g clip-path="url(#e1555fa032)"><path fill="#00a1df" d="M 180.0625 37.5 L 222.082031 71.082031 L 222.082031 52.996094 L 266.3125 52.996094 L 266.3125 106.429688 L 355.648438 177.824219 C 346.054688 177.25 336.363281 176.957031 326.589844 176.957031 C 320.589844 176.957031 314.628906 177.070312 308.699219 177.285156 L 180.0625 73.9375 L 81.25 152.90625 L 94.617188 152.90625 L 94.617188 206.394531 C 138.835938 181.898438 225.457031 168.722656 285.710938 178.679688 C 201.339844 185.820312 125.140625 214.8125 66.167969 258.40625 L 66.167969 181.382812 L 0.0273438 181.382812 Z M 180.0625 37.5 " fill-opacity="1" fill-rule="evenodd"/></g><g clip-path="url(#942e58edf7)"><path fill="#10588c" d="M 227.355469 208.148438 C 278.351562 191.070312 329.121094 183.742188 374.976562 185.128906 C 346.429688 188.675781 316.886719 195.3125 287.277344 205.230469 C 197.332031 235.359375 127.652344 288.78125 94.757812 345.757812 L 46.550781 330.660156 C 82.773438 280.613281 146.976562 235.078125 227.355469 208.148438 Z M 227.355469 208.148438 " fill-opacity="1" fill-rule="evenodd"/></g></svg>